<?xml version="1.0" encoding="utf-8"?>
<!-- Generator: Adobe Illustrator 19.2.0, SVG Export Plug-In . SVG Version: 6.00 Build 0)  -->
<svg version="1.1" xmlns="http://www.w3.org/2000/svg" xmlns:xlink="http://www.w3.org/1999/xlink" x="0px" y="0px"
	 viewBox="0 0 1440.4 511" style="enable-background:new 0 0 1440.4 511;" xml:space="preserve">
<style type="text/css">
	.st0{fill:url(#SVGID_1_);stroke:#D1D3D4;stroke-width:10;stroke-miterlimit:10;}
	.st1{fill:#F2F2F2;stroke:#D1D3D4;stroke-width:10;stroke-miterlimit:10;}
	.st2{fill:#FFFFFF;stroke:#D1D3D4;stroke-width:10;stroke-miterlimit:10;}
	.st3{clip-path:url(#SVGID_3_);}
	.st4{fill:none;stroke:#231F20;stroke-miterlimit:10;}
	.st5{opacity:0.27;clip-path:url(#SVGID_3_);fill:url(#SVGID_4_);}
	.st6{opacity:0.27;clip-path:url(#SVGID_3_);fill:url(#SVGID_5_);}
	.st7{clip-path:url(#SVGID_3_);fill:none;stroke:#231F20;stroke-miterlimit:10;}
	.st8{clip-path:url(#SVGID_7_);fill:none;stroke:#231F20;stroke-miterlimit:10;}
	.st9{opacity:0.27;clip-path:url(#SVGID_3_);fill:url(#SVGID_8_);}
	.st10{opacity:0.53;clip-path:url(#SVGID_3_);fill:url(#SVGID_9_);}
	.st11{clip-path:url(#SVGID_11_);}
	.st12{fill:url(#SVGID_12_);}
	.st13{opacity:0.27;clip-path:url(#SVGID_11_);fill:url(#SVGID_13_);}
	.st14{opacity:0.27;clip-path:url(#SVGID_11_);fill:url(#SVGID_14_);}
	.st15{clip-path:url(#SVGID_11_);fill:url(#SVGID_15_);}
	.st16{clip-path:url(#SVGID_11_);fill:url(#SVGID_16_);}
	.st17{clip-path:url(#SVGID_11_);fill:url(#SVGID_17_);}
	.st18{clip-path:url(#SVGID_19_);fill:url(#SVGID_20_);}
	.st19{clip-path:url(#SVGID_19_);fill:url(#SVGID_21_);}
	.st20{opacity:0.27;clip-path:url(#SVGID_11_);fill:url(#SVGID_22_);}
	.st21{opacity:0.53;clip-path:url(#SVGID_11_);fill:url(#SVGID_23_);}
	.st22{clip-path:url(#SVGID_25_);}
	.st23{fill:#B2B2B2;}
	.st24{opacity:0.27;clip-path:url(#SVGID_25_);fill:url(#SVGID_26_);}
	.st25{opacity:0.27;clip-path:url(#SVGID_25_);fill:url(#SVGID_27_);}
	.st26{clip-path:url(#SVGID_25_);fill:#CECECE;}
	.st27{clip-path:url(#SVGID_25_);fill:url(#SVGID_28_);}
	.st28{clip-path:url(#SVGID_25_);fill:url(#SVGID_29_);}
	.st29{clip-path:url(#SVGID_31_);fill:url(#SVGID_32_);}
	.st30{clip-path:url(#SVGID_31_);fill:url(#SVGID_33_);}
	.st31{opacity:0.27;clip-path:url(#SVGID_25_);fill:url(#SVGID_34_);}
	.st32{opacity:0.53;clip-path:url(#SVGID_25_);fill:url(#SVGID_35_);}
</style>
<g id="Background">
	<radialGradient id="SVGID_1_" cx="1048.1117" cy="255.5" r="172.3125" gradientUnits="userSpaceOnUse">
		<stop  offset="0" style="stop-color:#F1F2F2"/>
		<stop  offset="1" style="stop-color:#BCBEC0"/>
	</radialGradient>
	<circle class="st0" cx="1048.1" cy="255.5" r="172.3"/>
	<circle class="st1" cx="392.3" cy="255.5" r="172.3"/>
	<circle class="st2" cx="714.1" cy="255.5" r="172.3"/>
</g>
<g id="Objects">
	<g>
		<g>
			<g>
				<defs>
					<path id="SVGID_2_" d="M482.1,190.2c-25.6-8.7-60.4,2.1-92,11.5c-2.1,0.5-3.3,1-3.3,1s18.8,20.1,34.2,40.3
						c15.4,20.2,46.7,36.5,68.1,16.1c0,0-17.9,9-36.8-15.6c-5.3-7-12.7-17.5-20.2-26.4c16.2-3.8,31.3-5.7,41.6-2.2
						c27.1,9.2,39.2,31,30.9,55.5c-5.2,15.3-16.2,24.9-30.3,27.6c-7.1,0.5-14.9-0.6-23.1-3.5c-16.9-5.9-34.9-31.4-50.7-53.9
						c-0.3-0.4-0.6-0.9-1.1-1.5c-0.8-1.1-1.6-2.2-2.5-3.2c-14.4-19.9-30.3-38.2-49.3-44.9c-43-15.1-79.4,4.7-92,40.5
						s3.4,74,46.4,89.1c25.5,9,60.4-1.6,92.1-10.7c2.1-0.5,3.3-1,3.3-1s-18.6-20.3-33.8-40.6c-15.2-20.3-46.4-36.9-68-16.7
						c0,0,18-8.8,36.6,15.9c5.3,7,12.6,17.6,20,26.5c-16.2,3.7-31.3,5.5-41.6,1.9c-27-9.5-39-31.4-30.4-55.8
						c8.6-24.4,31.6-34,58.6-24.5c1,0.4,2,0.8,3.1,1.3c-0.3-0.2,0-0.2,0.6,0c-0.4,0-0.6,0-0.6,0c28.8,23.4,55.3,89.4,95.8,103.2
						c43.2,14.7,79.3-5.4,91.6-41.4C541.6,243,525.3,204.9,482.1,190.2z M470.5,298.6c-0.3,0-0.5,0.1-0.8,0.1
						C470,298.7,470.2,298.6,470.5,298.6z M472.5,298.4c-0.3,0-0.5,0.1-0.8,0.1C471.9,298.4,472.2,298.4,472.5,298.4z M444.9,295
						c0.4,0.2,0.9,0.3,1.3,0.5C445.7,295.3,445.3,295.1,444.9,295z M451.4,297c-0.2-0.1-0.4-0.1-0.7-0.2
						C451,296.9,451.2,297,451.4,297z M449.1,296.4c-0.2-0.1-0.4-0.1-0.7-0.2C448.7,296.2,448.9,296.3,449.1,296.4z M453.6,297.5
						c0.1,0,0.1,0,0.2,0C453.8,297.6,453.7,297.6,453.6,297.5z M455.8,298c0.2,0,0.5,0.1,0.7,0.1C456.3,298.1,456.1,298,455.8,298z
						 M458.1,298.3c0.2,0,0.5,0.1,0.7,0.1C458.5,298.4,458.3,298.4,458.1,298.3z M460.8,298.7c0.1,0,0.3,0,0.4,0
						C461.1,298.7,461,298.7,460.8,298.7z M462.9,298.8c0.3,0,0.5,0,0.8,0C463.4,298.8,463.2,298.8,462.9,298.8z M465,298.9
						c0.3,0,0.5,0,0.8,0C465.6,298.9,465.3,298.9,465,298.9z M468.3,298.8c-0.2,0-0.4,0-0.6,0C467.9,298.8,468.1,298.8,468.3,298.8z
						"/>
				</defs>
				<clipPath id="SVGID_3_">
					<use xlink:href="#SVGID_2_"  style="overflow:visible;"/>
				</clipPath>
				<g class="st3">
					<path class="st4" d="M295.5,251.6c0,0,18-8.8,36.6,15.9c5.3,7,12.6,17.6,20,26.5c-16.2,3.7-31.3,5.5-41.6,1.9
						c-27-9.5-39-31.4-30.4-55.8c8.6-24.4,31.6-34,58.6-24.5c1,0.4,2,0.8,3.1,1.3c-1.9-1.5,17.8,7.1,15.8,6c0,0,35,21,35.3,21.4
						c16.1,22.3,36.3,45.3,53.2,51.1c10.1,3.5,19.7,4.2,28.1,2.6c-7.1,0.5-14.9-0.6-23.1-3.5c-16.9-5.9-34.9-31.4-50.7-53.9
						c-0.3-0.4-0.6-0.9-1.1-1.5c-0.8-1.1-1.6-2.2-2.5-3.2c-14.4-19.9-30.3-38.2-49.3-44.9c-43-15.1-79.4,4.7-92,40.5
						c-12.6,35.8,3.4,74,46.4,89.1c25.5,9,60.4-1.6,92.1-10.7c2.1-0.5,3.3-1,3.3-1s-18.6-20.3-33.8-40.6
						C348.3,248,317.1,231.4,295.5,251.6z"/>
				</g>
				
					<linearGradient id="SVGID_4_" gradientUnits="userSpaceOnUse" x1="309.5594" y1="314.0743" x2="400.878" y2="222.7557" gradientTransform="matrix(1 7.076453e-03 -7.076453e-03 1 1.8142 -1.7465)">
					<stop  offset="0" style="stop-color:#FFFFFF;stop-opacity:0"/>
					<stop  offset="1" style="stop-color:#FFFFFF"/>
				</linearGradient>
				<path class="st5" d="M451.1,294.5c-16.9-5.9-34.9-31.4-50.7-53.9c-0.3-0.4-0.6-0.9-1.1-1.5c-0.8-1.1-1.6-2.2-2.5-3.2
					c-14.4-19.9-30.3-38.2-49.3-44.9c-43-15.1-79.4,4.7-92,40.5c-2.8,8.1-4.2,16.3-4.2,24.4c22.3-34.6,46.9-43.2,64.9-43.7
					c5.1-0.3,10.5,0.2,16.2,1.6c0.4,0.1,0.8,0.2,1.2,0.3c0.1,0,0.1,0,0.2,0.1c1.9,0.5,3.5,1,4.7,1.5c0.1,0,0.1,0,0.2,0.1
					c0.6,0.2,1.2,0.5,1.9,0.7c0.8,0.3,1.2,0.5,1.2,0.5c-1.9-1.5,17.8,7.1,15.8,6c0,0,35,21,35.3,21.4c16.1,22.3,36.3,45.3,53.2,51.1
					c10.1,3.5,19.7,4.2,28.1,2.6C467.1,298.5,459.3,297.4,451.1,294.5z"/>
				
					<linearGradient id="SVGID_5_" gradientUnits="userSpaceOnUse" x1="309.5594" y1="314.0743" x2="400.878" y2="222.7557" gradientTransform="matrix(1 7.076453e-03 -7.076453e-03 1 1.8142 -1.7465)">
					<stop  offset="0" style="stop-color:#FFFFFF;stop-opacity:0"/>
					<stop  offset="0.8529" style="stop-color:#FFFFFF;stop-opacity:0.8529"/>
					<stop  offset="1" style="stop-color:#FFFFFF"/>
				</linearGradient>
				<path class="st6" d="M451.1,294.5c-16.9-5.9-34.9-31.4-50.7-53.9c-0.3-0.4-0.6-0.9-1.1-1.5c-0.8-1.1-1.6-2.2-2.5-3.2
					c-14.4-19.9-30.3-38.2-49.3-44.9c-43-15.1-79.4,4.7-92,40.5c-2.8,8.1-4.2,16.3-4.2,24.4c22.3-34.6,46.9-43.2,64.9-43.7
					c5.1-0.3,10.5,0.2,16.2,1.6c0.4,0.1,0.8,0.2,1.2,0.3c0.1,0,0.1,0,0.2,0.1c1.9,0.5,3.5,1,4.7,1.5c0.1,0,0.1,0,0.2,0.1
					c0.6,0.2,1.2,0.5,1.9,0.7c0.8,0.3,1.2,0.5,1.2,0.5c-1.9-1.5,17.8,7.1,15.8,6c0,0,35,21,35.3,21.4c16.1,22.3,36.3,45.3,53.2,51.1
					c10.1,3.5,19.7,4.2,28.1,2.6C467.1,298.5,459.3,297.4,451.1,294.5z"/>
				<path class="st7" d="M482.1,190.1c-25.6-8.7-60.4,2.1-92,11.5c-2.1,0.5-3.3,1-3.3,1s18.8,20.1,34.2,40.3
					c15.4,20.2,46.7,36.5,68.1,16.1c0,0-17.9,9-36.8-15.6c-5.3-7-12.7-17.5-20.2-26.4c16.2-3.8,31.3-5.7,41.6-2.2
					c27.1,9.2,39.2,31,30.9,55.5c-8.3,24.5-31.3,34.3-58.4,25c-13.2-4.5-27.2-20.9-40.3-38.5c-1.1-1.4-2.6-3.4-4.6-6.3c0,0,0,0,0,0
					c-0.5-0.7-1-1.4-1.5-2c-25.6-34.4-57.8-31.6-57.8-31.6l0,0c28.8,23.4,55.3,89.4,95.8,103.2c43.2,14.7,79.3-5.4,91.6-41.4
					C541.6,242.9,525.3,204.8,482.1,190.1z"/>
				<path class="st7" d="M379.4,263.7L379.4,263.7c0,0,53.6,49.6,94.9,34.3l0,0c-8.4,1.6-17.9,0.8-28.1-2.6
					c-13.2-4.5-27.2-20.9-40.3-38.5c-1.1-1.4-2.6-3.4-4.6-6.3c0,0,0,0,0,0c-0.5-0.7-1-1.4-1.5-2c-25.6-34.4-57.8-31.6-57.8-31.6
					C354.4,227.1,366.4,245.3,379.4,263.7z"/>
				<g class="st3">
					<defs>
						<path id="SVGID_6_" d="M482.1,190.1c-25.6-8.7-60.4,2.1-92,11.5c-2.1,0.5-3.3,1-3.3,1s18.8,20.1,34.2,40.3
							c15.4,20.2,46.7,36.5,68.1,16.1c0,0-17.9,9-36.8-15.6c-5.3-7-12.7-17.5-20.2-26.4c16.2-3.8,31.3-5.7,41.6-2.2
							c27.1,9.2,39.2,31,30.9,55.5c-5.2,15.3-16.2,24.9-30.3,27.6c-7.1,0.5-14.9-0.6-23.1-3.5c-16.9-5.9-34.9-31.4-50.7-53.9
							c-0.3-0.4-0.6-0.9-1.1-1.5c-0.8-1.1-1.6-2.2-2.5-3.2c-14.4-19.9-30.3-38.2-49.3-44.9c-43-15.1-79.4,4.7-92,40.5
							c-12.6,35.8,3.4,74,46.4,89.1c25.5,9,60.4-1.6,92.1-10.7c2.1-0.5,3.3-1,3.3-1s-18.6-20.3-33.8-40.6
							c-15.2-20.3-46.4-36.9-68-16.7c0,0,18-8.8,36.6,15.9c5.3,7,12.6,17.6,20,26.5c-16.2,3.7-31.3,5.5-41.6,1.9
							c-27-9.5-39-31.4-30.4-55.8c8.6-24.4,31.6-34,58.6-24.5c1,0.4,2,0.8,3.1,1.3c-0.3-0.2,0-0.2,0.6,0c-0.4,0-0.6,0-0.6,0
							c28.8,23.4,55.3,89.4,95.8,103.2c43.2,14.7,79.3-5.4,91.6-41.4C541.6,242.9,525.3,204.8,482.1,190.1z M470.5,298.6
							c-0.3,0-0.5,0.1-0.8,0.1C470,298.6,470.2,298.6,470.5,298.6z M472.5,298.3c-0.3,0-0.5,0.1-0.8,0.1
							C471.9,298.4,472.2,298.3,472.5,298.3z M444.9,294.9c0.4,0.2,0.9,0.3,1.3,0.5C445.7,295.2,445.3,295.1,444.9,294.9z
							 M451.4,297c-0.2-0.1-0.4-0.1-0.7-0.2C451,296.8,451.2,296.9,451.4,297z M449.1,296.3c-0.2-0.1-0.4-0.1-0.7-0.2
							C448.7,296.2,448.9,296.3,449.1,296.3z M453.6,297.5c0.1,0,0.1,0,0.2,0C453.8,297.5,453.7,297.5,453.6,297.5z M455.8,297.9
							c0.2,0,0.5,0.1,0.7,0.1C456.3,298,456.1,298,455.8,297.9z M458.1,298.3c0.2,0,0.5,0.1,0.7,0.1
							C458.5,298.3,458.3,298.3,458.1,298.3z M460.8,298.6c0.1,0,0.3,0,0.4,0C461.1,298.6,461,298.6,460.8,298.6z M462.9,298.8
							c0.3,0,0.5,0,0.8,0C463.4,298.8,463.2,298.8,462.9,298.8z M465,298.8c0.3,0,0.5,0,0.8,0C465.6,298.8,465.3,298.8,465,298.8z
							 M468.3,298.7c-0.2,0-0.4,0-0.6,0C467.9,298.8,468.1,298.7,468.3,298.7z"/>
					</defs>
					<clipPath id="SVGID_7_">
						<use xlink:href="#SVGID_6_"  style="overflow:visible;"/>
					</clipPath>
					<path class="st8" d="M432.1,217.1c0,0,10.3,67.9,57,42L432.1,217.1z"/>
					<path class="st8" d="M352,293.4c0,0-10.3-67.9-57-42L352,293.4z"/>
				</g>
				
					<linearGradient id="SVGID_8_" gradientUnits="userSpaceOnUse" x1="386.4047" y1="216.995" x2="542.3115" y2="216.995" gradientTransform="matrix(1 7.076453e-03 -7.076453e-03 1 1.8142 -1.7465)">
					<stop  offset="0" style="stop-color:#FFFFFF;stop-opacity:0"/>
					<stop  offset="0.8529" style="stop-color:#FFFFFF;stop-opacity:0.8529"/>
					<stop  offset="1" style="stop-color:#FFFFFF"/>
				</linearGradient>
				<path class="st9" d="M386.8,202.6c0,0,130.6-33.5,145.7,63.3l9.8,0.1l0.6-91.7C542.9,174.3,439.4,159.6,386.8,202.6z"/>
				
					<linearGradient id="SVGID_9_" gradientUnits="userSpaceOnUse" x1="20.5394" y1="399.2606" x2="176.4462" y2="399.2606" gradientTransform="matrix(-1 -7.076453e-03 7.076453e-03 -1 414.9758 692.1632)">
					<stop  offset="0" style="stop-color:#FFFFFF;stop-opacity:0"/>
					<stop  offset="0.8529" style="stop-color:#FFFFFF;stop-opacity:0.8529"/>
					<stop  offset="1" style="stop-color:#FFFFFF"/>
				</linearGradient>
				<path class="st10" d="M397.2,308.1c0,0-130.6,33.5-145.7-63.3l-9.8-0.1l-0.6,91.7C241,336.5,344.6,351.1,397.2,308.1z"/>
			</g>
		</g>
	</g>
	<g>
		<g>
			<g>
				<defs>
					<path id="SVGID_10_" d="M1137.4,189.5c-25.7-8.6-60.4,2.6-91.9,12.2c-2.1,0.6-3.3,1-3.3,1s18.9,20,34.5,40.1
						c15.5,20.1,47,36.2,68.2,15.6c0,0-17.9,9.1-36.9-15.3c-5.4-6.9-12.9-17.4-20.4-26.2c16.2-3.9,31.2-6,41.5-2.5
						c27.2,9.1,39.5,30.7,31.3,55.3c-5.1,15.4-16,25-30.1,27.9c-7.1,0.6-15-0.5-23.1-3.3c-16.9-5.8-35.1-31.2-51.1-53.5
						c-0.3-0.4-0.6-0.9-1.1-1.5c-0.8-1.1-1.7-2.2-2.5-3.2c-14.6-19.8-30.5-38-49.7-44.6c-43.1-14.8-79.4,5.3-91.7,41.2
						s3.9,74,47.1,88.8c25.6,8.8,60.4-2,92-11.4c2.1-0.5,3.3-1,3.3-1s-18.8-20.2-34.1-40.4c-15.3-20.2-46.7-36.6-68.1-16.3
						c0,0,18-8.9,36.8,15.7c5.3,7,12.7,17.5,20.2,26.4c-16.2,3.8-31.3,5.7-41.6,2.1c-27.1-9.3-39.2-31.1-30.8-55.5
						c8.4-24.4,31.3-34.2,58.4-24.9c1,0.4,2.1,0.8,3.1,1.3c-0.3-0.2,0-0.2,0.6,0c-0.4,0-0.6,0-0.6,0c29,23.2,56,89,96.6,102.5
						c43.3,14.4,79.3-6,91.3-42C1197.3,241.9,1180.7,203.9,1137.4,189.5z M1126.6,298.1c-0.3,0-0.5,0.1-0.8,0.1
						C1126.1,298.1,1126.3,298.1,1126.6,298.1z M1128.6,297.8c-0.3,0-0.5,0.1-0.8,0.1C1128.1,297.9,1128.3,297.8,1128.6,297.8z
						 M1101,294.6c0.4,0.2,0.9,0.3,1.3,0.5C1101.8,294.9,1101.4,294.8,1101,294.6z M1107.5,296.6c-0.2-0.1-0.4-0.1-0.7-0.2
						C1107.1,296.5,1107.3,296.5,1107.5,296.6z M1105.2,296c-0.2-0.1-0.4-0.1-0.7-0.2C1104.8,295.8,1105,295.9,1105.2,296z
						 M1109.8,297.1c0.1,0,0.1,0,0.2,0C1109.9,297.1,1109.8,297.1,1109.8,297.1z M1111.9,297.5c0.2,0,0.5,0.1,0.7,0.1
						C1112.4,297.6,1112.2,297.6,1111.9,297.5z M1114.2,297.9c0.2,0,0.5,0.1,0.7,0.1C1114.7,297.9,1114.4,297.9,1114.2,297.9z
						 M1117,298.2c0.1,0,0.3,0,0.4,0C1117.2,298.2,1117.1,298.2,1117,298.2z M1119,298.3c0.3,0,0.5,0,0.8,0
						C1119.6,298.3,1119.3,298.3,1119,298.3z M1121.2,298.4c0.3,0,0.5,0,0.8,0C1121.7,298.4,1121.4,298.4,1121.2,298.4z
						 M1124.4,298.3c-0.2,0-0.4,0-0.6,0C1124,298.3,1124.2,298.3,1124.4,298.3z"/>
				</defs>
				<clipPath id="SVGID_11_">
					<use xlink:href="#SVGID_10_"  style="overflow:visible;"/>
				</clipPath>
				<g class="st11">
					<linearGradient id="SVGID_12_" gradientUnits="userSpaceOnUse" x1="930.8979" y1="202.2738" x2="1078.1945" y2="349.5703">
						<stop  offset="0" style="stop-color:#2B3990"/>
						<stop  offset="0.9951" style="stop-color:#1C75BC"/>
					</linearGradient>
					<path class="st12" d="M951.3,252.3c0,0,18-8.9,36.8,15.7c5.3,7,12.7,17.5,20.2,26.4c-16.2,3.8-31.3,5.7-41.6,2.1
						c-27.1-9.3-39.2-31.1-30.8-55.5c8.4-24.4,31.3-34.2,58.4-24.9c1,0.4,2.1,0.8,3.1,1.3c-1.9-1.5,17.8,7,15.9,5.9
						c0,0,35.1,20.8,35.4,21.1c16.2,22.2,36.6,45,53.6,50.7c10.1,3.4,19.7,4.1,28.1,2.4c-7.1,0.6-15-0.5-23.1-3.3
						c-16.9-5.8-35.1-31.2-51.1-53.5c-0.3-0.4-0.6-0.9-1.1-1.5c-0.8-1.1-1.7-2.2-2.5-3.2c-14.6-19.8-30.5-38-49.7-44.6
						c-43.1-14.8-79.4,5.3-91.7,41.2c-12.3,35.9,3.9,74,47.1,88.8c25.6,8.8,60.4-2,92-11.4c2.1-0.5,3.3-1,3.3-1
						s-18.8-20.2-34.1-40.4C1004.1,248.3,972.8,232,951.3,252.3z"/>
				</g>
				<linearGradient id="SVGID_13_" gradientUnits="userSpaceOnUse" x1="965.3709" y1="315.0974" x2="1056.6895" y2="223.7787">
					<stop  offset="0" style="stop-color:#FFFFFF;stop-opacity:0"/>
					<stop  offset="1" style="stop-color:#FFFFFF"/>
				</linearGradient>
				<path class="st13" d="M1107.2,294.1c-16.9-5.8-35.1-31.2-51.1-53.5c-0.3-0.4-0.6-0.9-1.1-1.5c-0.8-1.1-1.7-2.2-2.5-3.2
					c-14.6-19.8-30.5-38-49.7-44.6c-43.1-14.8-79.4,5.3-91.7,41.2c-2.8,8.1-4.1,16.4-4,24.4c22-34.8,46.6-43.5,64.6-44.2
					c5.1-0.3,10.5,0.2,16.2,1.5c0.4,0.1,0.8,0.2,1.2,0.3c0.1,0,0.1,0,0.2,0.1c1.9,0.5,3.5,1,4.7,1.4c0.1,0,0.2,0,0.2,0.1
					c0.6,0.2,1.2,0.5,1.9,0.7c0.8,0.3,1.2,0.5,1.2,0.5c-1.9-1.5,17.8,7,15.9,5.9c0,0,35.1,20.8,35.4,21.1
					c16.2,22.2,36.6,45,53.6,50.7c10.1,3.4,19.7,4.1,28.1,2.4C1123.2,298,1115.4,296.9,1107.2,294.1z"/>
				<linearGradient id="SVGID_14_" gradientUnits="userSpaceOnUse" x1="965.3709" y1="315.0974" x2="1056.6895" y2="223.7787">
					<stop  offset="0" style="stop-color:#FFFFFF;stop-opacity:0"/>
					<stop  offset="0.8529" style="stop-color:#FFFFFF;stop-opacity:0.8529"/>
					<stop  offset="1" style="stop-color:#FFFFFF"/>
				</linearGradient>
				<path class="st14" d="M1107.2,294.1c-16.9-5.8-35.1-31.2-51.1-53.5c-0.3-0.4-0.6-0.9-1.1-1.5c-0.8-1.1-1.7-2.2-2.5-3.2
					c-14.6-19.8-30.5-38-49.7-44.6c-43.1-14.8-79.4,5.3-91.7,41.2c-2.8,8.1-4.1,16.4-4,24.4c22-34.8,46.6-43.5,64.6-44.2
					c5.1-0.3,10.5,0.2,16.2,1.5c0.4,0.1,0.8,0.2,1.2,0.3c0.1,0,0.1,0,0.2,0.1c1.9,0.5,3.5,1,4.7,1.4c0.1,0,0.2,0,0.2,0.1
					c0.6,0.2,1.2,0.5,1.9,0.7c0.8,0.3,1.2,0.5,1.2,0.5c-1.9-1.5,17.8,7,15.9,5.9c0,0,35.1,20.8,35.4,21.1
					c16.2,22.2,36.6,45,53.6,50.7c10.1,3.4,19.7,4.1,28.1,2.4C1123.2,298,1115.4,296.9,1107.2,294.1z"/>
				<linearGradient id="SVGID_15_" gradientUnits="userSpaceOnUse" x1="1054.389" y1="289.9678" x2="1152.6851" y2="191.6718">
					<stop  offset="0" style="stop-color:#2B3990"/>
					<stop  offset="1" style="stop-color:#D7DF23"/>
				</linearGradient>
				<path class="st15" d="M1137.4,189.5c-25.7-8.6-60.4,2.6-91.9,12.2c-2.1,0.6-3.3,1-3.3,1s18.9,20,34.5,40.1
					c15.5,20.1,47,36.2,68.2,15.6c0,0-17.9,9.1-36.9-15.3c-5.4-6.9-12.9-17.4-20.4-26.2c16.2-3.9,31.2-6,41.5-2.5
					c27.2,9.1,39.5,30.7,31.3,55.3c-8.2,24.5-31,34.5-58.2,25.4c-13.2-4.4-27.3-20.7-40.6-38.2c-1.1-1.4-2.6-3.4-4.7-6.2
					c0,0,0,0,0,0c-0.5-0.7-1-1.3-1.5-2c-25.9-34.3-58.1-31.2-58.1-31.2l0,0c29,23.2,56,89,96.6,102.5c43.3,14.4,79.3-6,91.3-42
					C1197.3,241.8,1180.7,203.9,1137.4,189.5z"/>
				<linearGradient id="SVGID_16_" gradientUnits="userSpaceOnUse" x1="997.4135" y1="258.8616" x2="1130.3378" y2="258.8616">
					<stop  offset="0" style="stop-color:#000000"/>
					<stop  offset="1" style="stop-color:#000000;stop-opacity:0"/>
				</linearGradient>
				<path class="st16" d="M1035.2,263.8L1035.2,263.8c0,0,53.9,49.2,95.1,33.7l0,0c-8.4,1.7-17.9,1-28.1-2.4
					c-13.2-4.4-27.3-20.7-40.6-38.2c-1.1-1.4-2.6-3.4-4.7-6.2c0,0,0,0,0,0c-0.5-0.7-1-1.3-1.5-2c-25.9-34.3-58.1-31.2-58.1-31.2
					C1010,227.4,1022.2,245.4,1035.2,263.8z"/>
				<linearGradient id="SVGID_17_" gradientUnits="userSpaceOnUse" x1="997.4135" y1="258.8616" x2="1130.3378" y2="258.8616">
					<stop  offset="0" style="stop-color:#000000"/>
					<stop  offset="0.1413" style="stop-color:#000000;stop-opacity:0.8587"/>
					<stop  offset="1" style="stop-color:#000000;stop-opacity:0"/>
				</linearGradient>
				<path class="st17" d="M1035.2,263.8L1035.2,263.8c0,0,53.9,49.2,95.1,33.7l0,0c-8.4,1.7-17.9,1-28.1-2.4
					c-13.2-4.4-27.3-20.7-40.6-38.2c-1.1-1.4-2.6-3.4-4.7-6.2c0,0,0,0,0,0c-0.5-0.7-1-1.3-1.5-2c-25.9-34.3-58.1-31.2-58.1-31.2
					C1010,227.4,1022.2,245.4,1035.2,263.8z"/>
				<g class="st11">
					<defs>
						<path id="SVGID_18_" d="M1137.4,189.5c-25.7-8.6-60.4,2.6-91.9,12.2c-2.1,0.6-3.3,1-3.3,1s18.9,20,34.5,40.1
							c15.5,20.1,47,36.2,68.2,15.6c0,0-17.9,9.1-36.9-15.3c-5.4-6.9-12.9-17.4-20.4-26.2c16.2-3.9,31.2-6,41.5-2.5
							c27.2,9.1,39.5,30.7,31.3,55.3c-5.1,15.4-16,25-30.1,27.9c-7.1,0.6-15-0.5-23.1-3.3c-16.9-5.8-35.1-31.2-51.1-53.5
							c-0.3-0.4-0.6-0.9-1.1-1.5c-0.8-1.1-1.7-2.2-2.5-3.2c-14.6-19.8-30.5-38-49.7-44.6c-43.1-14.8-79.4,5.3-91.7,41.2
							c-12.3,35.9,3.9,74,47.1,88.8c25.6,8.8,60.4-2,92-11.4c2.1-0.5,3.3-1,3.3-1s-18.8-20.2-34.1-40.4
							c-15.3-20.2-46.7-36.6-68.1-16.3c0,0,18-8.9,36.8,15.7c5.3,7,12.7,17.5,20.2,26.4c-16.2,3.8-31.3,5.7-41.6,2.1
							c-27.1-9.3-39.2-31.1-30.8-55.5c8.4-24.4,31.3-34.2,58.4-24.9c1,0.4,2.1,0.8,3.1,1.3c-0.3-0.2,0-0.2,0.6,0c-0.4,0-0.6,0-0.6,0
							c29,23.2,56,89,96.6,102.5c43.3,14.4,79.3-6,91.3-42C1197.3,241.8,1180.7,203.9,1137.4,189.5z M1126.6,298
							c-0.3,0-0.5,0.1-0.8,0.1C1126.1,298.1,1126.3,298,1126.6,298z M1128.6,297.7c-0.3,0-0.5,0.1-0.8,0.1
							C1128.1,297.8,1128.3,297.8,1128.6,297.7z M1101,294.5c0.4,0.2,0.9,0.3,1.3,0.5C1101.8,294.9,1101.4,294.7,1101,294.5z
							 M1107.5,296.5c-0.2-0.1-0.4-0.1-0.7-0.2C1107.1,296.4,1107.3,296.5,1107.5,296.5z M1105.2,295.9c-0.2-0.1-0.4-0.1-0.7-0.2
							C1104.8,295.8,1105,295.9,1105.2,295.9z M1109.8,297.1c0.1,0,0.1,0,0.2,0C1109.9,297.1,1109.8,297.1,1109.8,297.1z
							 M1111.9,297.5c0.2,0,0.5,0.1,0.7,0.1C1112.4,297.6,1112.2,297.5,1111.9,297.5z M1114.2,297.8c0.2,0,0.5,0.1,0.7,0.1
							C1114.7,297.9,1114.4,297.8,1114.2,297.8z M1117,298.1c0.1,0,0.3,0,0.4,0C1117.2,298.1,1117.1,298.1,1117,298.1z M1119,298.3
							c0.3,0,0.5,0,0.8,0C1119.6,298.3,1119.3,298.3,1119,298.3z M1121.2,298.3c0.3,0,0.5,0,0.8,0
							C1121.7,298.3,1121.4,298.3,1121.2,298.3z M1124.4,298.2c-0.2,0-0.4,0-0.6,0C1124,298.2,1124.2,298.2,1124.4,298.2z"/>
					</defs>
					<clipPath id="SVGID_19_">
						<use xlink:href="#SVGID_18_"  style="overflow:visible;"/>
					</clipPath>
					<linearGradient id="SVGID_20_" gradientUnits="userSpaceOnUse" x1="1101.7007" y1="252.1824" x2="1120.2125" y2="233.6706">
						<stop  offset="0" style="stop-color:#000000"/>
						<stop  offset="1" style="stop-color:#000000;stop-opacity:0"/>
					</linearGradient>
					<path class="st18" d="M1087.6,216.8c0,0,10.8,67.8,57.3,41.5L1087.6,216.8z"/>
					
						<linearGradient id="SVGID_21_" gradientUnits="userSpaceOnUse" x1="-425.4543" y1="557.4515" x2="-406.9425" y2="538.9398" gradientTransform="matrix(-1 0 0 -1 568.5644 815.7611)">
						<stop  offset="0" style="stop-color:#000000"/>
						<stop  offset="1" style="stop-color:#000000;stop-opacity:0"/>
					</linearGradient>
					<path class="st19" d="M1008.1,293.7c0,0-10.8-67.8-57.3-41.5L1008.1,293.7z"/>
				</g>
				<linearGradient id="SVGID_22_" gradientUnits="userSpaceOnUse" x1="1042.2162" y1="218.0181" x2="1198.123" y2="218.0181">
					<stop  offset="0" style="stop-color:#FFFFFF;stop-opacity:0"/>
					<stop  offset="0.8529" style="stop-color:#FFFFFF;stop-opacity:0.8529"/>
					<stop  offset="1" style="stop-color:#FFFFFF"/>
				</linearGradient>
				<path class="st20" d="M1042.2,202.7c0,0,130.4-34.4,146.1,62.3h9.8v-91.7C1198.1,173.2,1094.5,159.3,1042.2,202.7z"/>
				
					<linearGradient id="SVGID_23_" gradientUnits="userSpaceOnUse" x1="-635.2721" y1="398.2375" x2="-479.3653" y2="398.2375" gradientTransform="matrix(-1 0 0 -1 418.0616 690.9686)">
					<stop  offset="0" style="stop-color:#FFFFFF;stop-opacity:0"/>
					<stop  offset="0.8529" style="stop-color:#FFFFFF;stop-opacity:0.8529"/>
					<stop  offset="1" style="stop-color:#FFFFFF"/>
				</linearGradient>
				<path class="st21" d="M1053.3,308.1c0,0-130.4,34.4-146.1-62.3h-9.8v91.7C897.4,337.5,1001.1,351.5,1053.3,308.1z"/>
			</g>
		</g>
	</g>
	<g>
		<g>
			<g>
				<defs>
					<path id="SVGID_24_" d="M809.9,189.5c-25.7-8.6-60.4,2.6-91.9,12.2c-2.1,0.6-3.3,1-3.3,1s18.9,20,34.5,40.1
						c15.5,20.1,47,36.2,68.2,15.6c0,0-17.9,9.1-36.9-15.3c-5.4-6.9-12.9-17.4-20.4-26.2c16.2-3.9,31.2-6,41.5-2.5
						c27.2,9.1,39.5,30.7,31.3,55.3c-5.1,15.4-16,25-30.1,27.9c-7.1,0.6-15-0.5-23.1-3.3c-16.9-5.8-35.1-31.2-51.1-53.5
						c-0.3-0.4-0.6-0.9-1.1-1.5c-0.8-1.1-1.7-2.2-2.5-3.2c-14.6-19.8-30.5-38-49.7-44.6c-43.1-14.8-79.4,5.3-91.7,41.2
						s3.9,74,47.1,88.8c25.6,8.8,60.4-2,92-11.4c2.1-0.5,3.3-1,3.3-1s-18.8-20.2-34.1-40.4c-15.3-20.2-46.7-36.6-68.1-16.3
						c0,0,18-8.9,36.8,15.7c5.3,7,12.7,17.5,20.2,26.4c-16.2,3.8-31.3,5.7-41.6,2.1c-27.1-9.3-39.2-31.1-30.8-55.5
						c8.4-24.4,31.3-34.2,58.4-24.9c1,0.4,2.1,0.8,3.1,1.3c-0.3-0.2,0-0.2,0.6,0c-0.4,0-0.6,0-0.6,0c29,23.2,56,89,96.6,102.5
						c43.3,14.4,79.3-6,91.3-42C869.7,241.9,853.1,203.9,809.9,189.5z M799,298.1c-0.3,0-0.5,0.1-0.8,0.1
						C798.5,298.1,798.8,298.1,799,298.1z M801,297.8c-0.3,0-0.5,0.1-0.8,0.1C800.5,297.9,800.7,297.8,801,297.8z M773.4,294.6
						c0.4,0.2,0.9,0.3,1.3,0.5C774.3,294.9,773.8,294.8,773.4,294.6z M780,296.6c-0.2-0.1-0.4-0.1-0.7-0.2
						C779.5,296.5,779.8,296.5,780,296.6z M777.6,296c-0.2-0.1-0.4-0.1-0.7-0.2C777.2,295.8,777.4,295.9,777.6,296z M782.2,297.1
						c0.1,0,0.1,0,0.2,0C782.3,297.1,782.2,297.1,782.2,297.1z M784.4,297.5c0.2,0,0.5,0.1,0.7,0.1
						C784.9,297.6,784.6,297.6,784.4,297.5z M786.6,297.9c0.2,0,0.5,0.1,0.7,0.1C787.1,297.9,786.8,297.9,786.6,297.9z M789.4,298.2
						c0.1,0,0.3,0,0.4,0C789.7,298.2,789.5,298.2,789.4,298.2z M791.5,298.3c0.3,0,0.5,0,0.8,0C792,298.3,791.7,298.3,791.5,298.3z
						 M793.6,298.4c0.3,0,0.5,0,0.8,0C794.1,298.4,793.8,298.4,793.6,298.4z M796.8,298.3c-0.2,0-0.4,0-0.6,0
						C796.4,298.3,796.6,298.3,796.8,298.3z"/>
				</defs>
				<clipPath id="SVGID_25_">
					<use xlink:href="#SVGID_24_"  style="overflow:visible;"/>
				</clipPath>
				<g class="st22">
					<path class="st23" d="M623.8,252.3c0,0,18-8.9,36.8,15.7c5.3,7,12.7,17.5,20.2,26.4c-16.2,3.8-31.3,5.7-41.6,2.1
						c-27.1-9.3-39.2-31.1-30.8-55.5c8.4-24.4,31.3-34.2,58.4-24.9c1,0.4,2.1,0.8,3.1,1.3c-1.9-1.5,17.8,7,15.9,5.9
						c0,0,35.1,20.8,35.4,21.1c16.2,22.2,36.6,45,53.6,50.7c10.1,3.4,19.7,4.1,28.1,2.4c-7.1,0.6-15-0.5-23.1-3.3
						c-16.9-5.8-35.1-31.2-51.1-53.5c-0.3-0.4-0.6-0.9-1.1-1.5c-0.8-1.1-1.7-2.2-2.5-3.2c-14.6-19.8-30.5-38-49.7-44.6
						c-43.1-14.8-79.4,5.3-91.7,41.2c-12.3,35.9,3.9,74,47.1,88.8c25.6,8.8,60.4-2,92-11.4c2.1-0.5,3.3-1,3.3-1
						s-18.8-20.2-34.1-40.4C676.5,248.3,645.2,232,623.8,252.3z"/>
				</g>
				<linearGradient id="SVGID_26_" gradientUnits="userSpaceOnUse" x1="637.8037" y1="315.0974" x2="729.1223" y2="223.7787">
					<stop  offset="0" style="stop-color:#FFFFFF;stop-opacity:0"/>
					<stop  offset="1" style="stop-color:#FFFFFF"/>
				</linearGradient>
				<path class="st24" d="M779.6,294.1c-16.9-5.8-35.1-31.2-51.1-53.5c-0.3-0.4-0.6-0.9-1.1-1.5c-0.8-1.1-1.7-2.2-2.5-3.2
					c-14.6-19.8-30.5-38-49.7-44.6c-43.1-14.8-79.4,5.3-91.7,41.2c-2.8,8.1-4.1,16.4-4,24.4c22-34.8,46.6-43.5,64.6-44.2
					c5.1-0.3,10.5,0.2,16.2,1.5c0.4,0.1,0.8,0.2,1.2,0.3c0.1,0,0.1,0,0.2,0.1c1.9,0.5,3.5,1,4.7,1.4c0.1,0,0.2,0,0.2,0.1
					c0.6,0.2,1.2,0.5,1.9,0.7c0.8,0.3,1.2,0.5,1.2,0.5c-1.9-1.5,17.8,7,15.9,5.9c0,0,35.1,20.8,35.4,21.1
					c16.2,22.2,36.6,45,53.6,50.7c10.1,3.4,19.7,4.1,28.1,2.4C795.6,298,787.8,296.9,779.6,294.1z"/>
				<linearGradient id="SVGID_27_" gradientUnits="userSpaceOnUse" x1="637.8037" y1="315.0974" x2="729.1223" y2="223.7787">
					<stop  offset="0" style="stop-color:#FFFFFF;stop-opacity:0"/>
					<stop  offset="0.8529" style="stop-color:#FFFFFF;stop-opacity:0.8529"/>
					<stop  offset="1" style="stop-color:#FFFFFF"/>
				</linearGradient>
				<path class="st25" d="M779.6,294.1c-16.9-5.8-35.1-31.2-51.1-53.5c-0.3-0.4-0.6-0.9-1.1-1.5c-0.8-1.1-1.7-2.2-2.5-3.2
					c-14.6-19.8-30.5-38-49.7-44.6c-43.1-14.8-79.4,5.3-91.7,41.2c-2.8,8.1-4.1,16.4-4,24.4c22-34.8,46.6-43.5,64.6-44.2
					c5.1-0.3,10.5,0.2,16.2,1.5c0.4,0.1,0.8,0.2,1.2,0.3c0.1,0,0.1,0,0.2,0.1c1.9,0.5,3.5,1,4.7,1.4c0.1,0,0.2,0,0.2,0.1
					c0.6,0.2,1.2,0.5,1.9,0.7c0.8,0.3,1.2,0.5,1.2,0.5c-1.9-1.5,17.8,7,15.9,5.9c0,0,35.1,20.8,35.4,21.1
					c16.2,22.2,36.6,45,53.6,50.7c10.1,3.4,19.7,4.1,28.1,2.4C795.6,298,787.8,296.9,779.6,294.1z"/>
				<path class="st26" d="M809.9,189.5c-25.7-8.6-60.4,2.6-91.9,12.2c-2.1,0.6-3.3,1-3.3,1s18.9,20,34.5,40.1
					c15.5,20.1,47,36.2,68.2,15.6c0,0-17.9,9.1-36.9-15.3c-5.4-6.9-12.9-17.4-20.4-26.2c16.2-3.9,31.2-6,41.5-2.5
					c27.2,9.1,39.5,30.7,31.3,55.3c-8.2,24.5-31,34.5-58.2,25.4c-13.2-4.4-27.3-20.7-40.6-38.2c-1.1-1.4-2.6-3.4-4.7-6.2
					c0,0,0,0,0,0c-0.5-0.7-1-1.3-1.5-2c-25.9-34.3-58.1-31.2-58.1-31.2l0,0c29,23.2,56,89,96.6,102.5c43.3,14.4,79.3-6,91.3-42
					C869.7,241.8,853.1,203.9,809.9,189.5z"/>
				<linearGradient id="SVGID_28_" gradientUnits="userSpaceOnUse" x1="669.8463" y1="258.8616" x2="802.7705" y2="258.8616">
					<stop  offset="0" style="stop-color:#000000"/>
					<stop  offset="1" style="stop-color:#000000;stop-opacity:0"/>
				</linearGradient>
				<path class="st27" d="M707.7,263.8L707.7,263.8c0,0,53.9,49.2,95.1,33.7l0,0c-8.4,1.7-17.9,1-28.1-2.4
					c-13.2-4.4-27.3-20.7-40.6-38.2c-1.1-1.4-2.6-3.4-4.7-6.2c0,0,0,0,0,0c-0.5-0.7-1-1.3-1.5-2c-25.9-34.3-58.1-31.2-58.1-31.2
					C682.4,227.4,694.6,245.4,707.7,263.8z"/>
				<linearGradient id="SVGID_29_" gradientUnits="userSpaceOnUse" x1="669.8463" y1="258.8616" x2="802.7705" y2="258.8616">
					<stop  offset="0" style="stop-color:#000000"/>
					<stop  offset="0.1413" style="stop-color:#000000;stop-opacity:0.8587"/>
					<stop  offset="1" style="stop-color:#000000;stop-opacity:0"/>
				</linearGradient>
				<path class="st28" d="M707.7,263.8L707.7,263.8c0,0,53.9,49.2,95.1,33.7l0,0c-8.4,1.7-17.9,1-28.1-2.4
					c-13.2-4.4-27.3-20.7-40.6-38.2c-1.1-1.4-2.6-3.4-4.7-6.2c0,0,0,0,0,0c-0.5-0.7-1-1.3-1.5-2c-25.9-34.3-58.1-31.2-58.1-31.2
					C682.4,227.4,694.6,245.4,707.7,263.8z"/>
				<g class="st22">
					<defs>
						<path id="SVGID_30_" d="M809.9,189.5c-25.7-8.6-60.4,2.6-91.9,12.2c-2.1,0.6-3.3,1-3.3,1s18.9,20,34.5,40.1
							c15.5,20.1,47,36.2,68.2,15.6c0,0-17.9,9.1-36.9-15.3c-5.4-6.9-12.9-17.4-20.4-26.2c16.2-3.9,31.2-6,41.5-2.5
							c27.2,9.1,39.5,30.7,31.3,55.3c-5.1,15.4-16,25-30.1,27.9c-7.1,0.6-15-0.5-23.1-3.3c-16.9-5.8-35.1-31.2-51.1-53.5
							c-0.3-0.4-0.6-0.9-1.1-1.5c-0.8-1.1-1.7-2.2-2.5-3.2c-14.6-19.8-30.5-38-49.7-44.6c-43.1-14.8-79.4,5.3-91.7,41.2
							c-12.3,35.9,3.9,74,47.1,88.8c25.6,8.8,60.4-2,92-11.4c2.1-0.5,3.3-1,3.3-1s-18.8-20.2-34.1-40.4
							c-15.3-20.2-46.7-36.6-68.1-16.3c0,0,18-8.9,36.8,15.7c5.3,7,12.7,17.5,20.2,26.4c-16.2,3.8-31.3,5.7-41.6,2.1
							c-27.1-9.3-39.2-31.1-30.8-55.5c8.4-24.4,31.3-34.2,58.4-24.9c1,0.4,2.1,0.8,3.1,1.3c-0.3-0.2,0-0.2,0.6,0c-0.4,0-0.6,0-0.6,0
							c29,23.2,56,89,96.6,102.5c43.3,14.4,79.3-6,91.3-42C869.7,241.8,853.1,203.9,809.9,189.5z M799,298c-0.3,0-0.5,0.1-0.8,0.1
							C798.5,298.1,798.8,298,799,298z M801,297.7c-0.3,0-0.5,0.1-0.8,0.1C800.5,297.8,800.7,297.8,801,297.7z M773.4,294.5
							c0.4,0.2,0.9,0.3,1.3,0.5C774.3,294.9,773.8,294.7,773.4,294.5z M780,296.5c-0.2-0.1-0.4-0.1-0.7-0.2
							C779.5,296.4,779.8,296.5,780,296.5z M777.6,295.9c-0.2-0.1-0.4-0.1-0.7-0.2C777.2,295.8,777.4,295.9,777.6,295.9z
							 M782.2,297.1c0.1,0,0.1,0,0.2,0C782.3,297.1,782.2,297.1,782.2,297.1z M784.4,297.5c0.2,0,0.5,0.1,0.7,0.1
							C784.9,297.6,784.6,297.5,784.4,297.5z M786.6,297.8c0.2,0,0.5,0.1,0.7,0.1C787.1,297.9,786.8,297.8,786.6,297.8z
							 M789.4,298.1c0.1,0,0.3,0,0.4,0C789.7,298.1,789.5,298.1,789.4,298.1z M791.5,298.3c0.3,0,0.5,0,0.8,0
							C792,298.3,791.7,298.3,791.5,298.3z M793.6,298.3c0.3,0,0.5,0,0.8,0C794.1,298.3,793.8,298.3,793.6,298.3z M796.8,298.2
							c-0.2,0-0.4,0-0.6,0C796.4,298.2,796.6,298.2,796.8,298.2z"/>
					</defs>
					<clipPath id="SVGID_31_">
						<use xlink:href="#SVGID_30_"  style="overflow:visible;"/>
					</clipPath>
					<linearGradient id="SVGID_32_" gradientUnits="userSpaceOnUse" x1="774.1335" y1="252.1824" x2="792.6453" y2="233.6706">
						<stop  offset="0" style="stop-color:#000000"/>
						<stop  offset="1" style="stop-color:#000000;stop-opacity:0"/>
					</linearGradient>
					<path class="st29" d="M760,216.8c0,0,10.8,67.8,57.3,41.5L760,216.8z"/>
					
						<linearGradient id="SVGID_33_" gradientUnits="userSpaceOnUse" x1="-97.8871" y1="557.4515" x2="-79.3753" y2="538.9398" gradientTransform="matrix(-1 0 0 -1 568.5644 815.7611)">
						<stop  offset="0" style="stop-color:#000000"/>
						<stop  offset="1" style="stop-color:#000000;stop-opacity:0"/>
					</linearGradient>
					<path class="st30" d="M680.5,293.7c0,0-10.8-67.8-57.3-41.5L680.5,293.7z"/>
				</g>
				<linearGradient id="SVGID_34_" gradientUnits="userSpaceOnUse" x1="714.649" y1="218.0181" x2="870.5558" y2="218.0181">
					<stop  offset="0" style="stop-color:#FFFFFF;stop-opacity:0"/>
					<stop  offset="0.8529" style="stop-color:#FFFFFF;stop-opacity:0.8529"/>
					<stop  offset="1" style="stop-color:#FFFFFF"/>
				</linearGradient>
				<path class="st31" d="M714.6,202.7c0,0,130.4-34.4,146.1,62.3h9.8v-91.7C870.6,173.2,766.9,159.3,714.6,202.7z"/>
				
					<linearGradient id="SVGID_35_" gradientUnits="userSpaceOnUse" x1="-307.7049" y1="398.2375" x2="-151.7981" y2="398.2375" gradientTransform="matrix(-1 0 0 -1 418.0616 690.9686)">
					<stop  offset="0" style="stop-color:#FFFFFF;stop-opacity:0"/>
					<stop  offset="0.8529" style="stop-color:#FFFFFF;stop-opacity:0.8529"/>
					<stop  offset="1" style="stop-color:#FFFFFF"/>
				</linearGradient>
				<path class="st32" d="M725.8,308.1c0,0-130.4,34.4-146.1-62.3h-9.8v91.7C569.9,337.5,673.5,351.5,725.8,308.1z"/>
			</g>
		</g>
	</g>
</g>
</svg>
